<?xml version="1.0" encoding="UTF-8" standalone="no"?>
<!-- Created with Inkscape (http://www.inkscape.org/) -->

<svg
   width="1024"
   height="1024"
   viewBox="0 0 270.93333 270.93333"
   version="1.1"
   id="svg5"
   xml:space="preserve"
   inkscape:version="1.2.1 (9c6d41e410, 2022-07-14)"
   sodipodi:docname="petlfg_logo_official_round.svg"
   inkscape:export-filename="..\Merch\petlfg_logo_official_round_@3200.png"
   inkscape:export-xdpi="300"
   inkscape:export-ydpi="300"
   xmlns:inkscape="http://www.inkscape.org/namespaces/inkscape"
   xmlns:sodipodi="http://sodipodi.sourceforge.net/DTD/sodipodi-0.dtd"
   xmlns="http://www.w3.org/2000/svg"
   xmlns:svg="http://www.w3.org/2000/svg"><sodipodi:namedview
     id="namedview7"
     pagecolor="#ffffff"
     bordercolor="#000000"
     borderopacity="0.25"
     inkscape:showpageshadow="2"
     inkscape:pageopacity="0"
     inkscape:pagecheckerboard="true"
     inkscape:deskcolor="#d1d1d1"
     inkscape:document-units="mm"
     showgrid="false"
     inkscape:zoom="0.35355339"
     inkscape:cx="-405.87929"
     inkscape:cy="599.62655"
     inkscape:window-width="1920"
     inkscape:window-height="1009"
     inkscape:window-x="1912"
     inkscape:window-y="-8"
     inkscape:window-maximized="1"
     inkscape:current-layer="g774" /><defs
     id="defs2" /><g
     inkscape:label="Layer 1"
     inkscape:groupmode="layer"
     id="layer1"><g
       id="g774"
       transform="matrix(4.4069544,0,0,4.4069544,-463.12454,-219.1189)"><g
         id="g485"><ellipse
           style="fill:#ffffff;stroke-width:0.120075"
           id="path299"
           cx="135.82877"
           cy="80.460457"
           rx="30.619217"
           ry="30.739292" /><g
           id="g787"
           transform="translate(-0.95274827,-0.27837173)"><path
             style="fill:#d40000;stroke-width:0.352778"
             d="m 116.83828,90.438464 c -0.81513,-1.742388 -0.4713,-4.552865 0.035,-6.429018 0.48507,-1.797392 2.10103,-3.308945 3.96615,-4.260463 1.77707,-0.906591 3.53118,-1.038739 5.31327,-0.129548 1.76014,0.89796 2.58205,1.784439 3.02709,3.442561 0.19615,0.730822 0.2903,2.395828 0.40938,3.705516 0.19668,2.162951 0.0568,2.051462 0.59992,2.515598 1.29365,1.105627 3.02703,0.786014 3.61159,1.575984 0.76965,1.040087 0.13905,2.785369 -1.32404,4.23494 -4.03279,3.99553 -12.13744,2.827786 -15.63831,-4.65557 z"
             id="path306"
             sodipodi:nodetypes="sssssssssss" /><path
             style="fill:#000000;stroke-width:0.352778"
             d="m 122.58419,96.738108 c -5.8036,-2.315849 -8.38439,-8.864183 -5.8904,-13.970063 1.38579,-2.837083 3.52934,-4.226163 6.46585,-4.449194 2.65285,-0.201487 4.50828,1.128599 6.01433,3.204104 1.65555,2.281532 0.41445,4.853029 1.49738,7.630169 0.60211,1.102169 2.5286,0.85801 3.50361,-0.176673 1.39064,-1.512066 2.03346,-3.610017 2.02935,-5.032569 -0.005,-1.755312 -2.61546,-1.310884 -3.37952,-2.718632 -2.30936,-4.254913 -7.92702,-7.19964 -7.99081,-11.419604 -0.0203,-1.340436 0.16031,-1.777612 1.16045,-2.809492 1.53694,-1.585722 4.21452,-2.563698 8.12748,-2.968528 2.97166,-0.307445 7.5662,-0.0627 10.02662,0.534095 1.79003,0.43419 4.30027,1.84595 5.11753,2.878109 0.64589,0.815712 1.00274,1.335701 0.59446,2.785476 -1.35572,4.814 -5.58451,6.907524 -7.92994,10.891863 -1.13492,1.927975 -3.25,1.022301 -3.24879,2.729788 0.001,2.086359 0.25549,3.503735 2.2424,5.532958 5.33381,5.447374 12.96461,3.141365 14.96447,-1.889416 1.10026,-2.767769 2.56354,-2.178078 1.6338,0.04785 -1.20587,2.887035 -3.37637,5.1845 -6.41248,6.018991 -8.5776,2.357594 -13.32797,-5.073327 -13.75951,-6.012468 -0.28019,0.997271 -1.66871,2.981071 -2.95537,3.82925 -0.39097,0.257732 -0.2375,2.179196 -1.14961,3.463629 -0.81966,1.154233 -1.75967,1.969597 -3.30127,2.431471 -1.5416,0.461874 -4.74362,0.512929 -7.36003,-0.531115 z m 7.29813,-0.455433 c -1.14772,-0.442347 -3.06873,-0.487534 -5.50122,-4.019355 -1.6618,-2.412823 -2.32499,-8.451879 -0.62759,-7.577542 0.49408,0.300654 0.67956,0.982373 0.81585,2.99861 0.25063,3.707818 2.37411,6.823124 5.76566,7.597282 0.74502,0.17006 1.18907,0.130066 2.03201,-0.884577 0.94916,-1.142496 0.88161,-2.68655 0.51309,-2.637877 -1.50264,0.198462 -1.99198,-0.530743 -2.59176,-1.27342 -0.59978,-0.742677 -1.02804,-3.041438 -1.03135,-5.032475 -0.007,-4.475298 -3.76939,-6.612826 -6.64075,-6.03116 -8.09205,1.639248 -6.9485,12.265725 -0.92519,15.939378 3.62458,2.064491 8.17535,1.565742 8.19122,0.921136 z"
             id="path304"
             sodipodi:nodetypes="cssscccscsssssscsssscsszscscsssszsscccs" /><path
             style="fill:#ffffff;stroke:none;stroke-width:0.309488"
             d="m 127.5135,68.564541 c 0.27258,-0.429951 0.80083,-0.803642 1.30958,-0.78575 0.42602,0.01498 1.01781,0.308132 1.04767,0.733366 0.0251,0.357392 -0.7566,0.462159 -1.07386,0.6286 -0.5065,0.265716 -1.06973,1.118837 -1.41435,0.811941 -0.34463,-0.306896 -0.057,-1.091742 0.13096,-1.388157 z"
             id="path460"
             sodipodi:nodetypes="sssszs" /></g></g></g></g></svg>
